<?xml version="1.0" encoding="utf-8"?>
<!-- Generator: Adobe Illustrator 26.0.1, SVG Export Plug-In . SVG Version: 6.00 Build 0)  -->
<svg version="1.1" id="Layer_1" xmlns="http://www.w3.org/2000/svg" xmlns:xlink="http://www.w3.org/1999/xlink" x="0px" y="0px"
	 viewBox="0 0 200 200" style="enable-background:new 0 0 200 200;" xml:space="preserve">
<style type="text/css">
	.st0{fill:#FFBC85;}
</style>
<g>
	<path class="st0" d="M100,0C44.86,0,0,44.86,0,100s44.86,100,100,100s100-44.86,100-100S155.14,0,100,0z M189.64,100
		c0,49.43-40.21,89.64-89.64,89.64S10.36,149.43,10.36,100S50.57,10.36,100,10.36S189.64,50.57,189.64,100z"/>
	<g>
		<path class="st0" d="M103.7,38.66c-1.25-1.25-3.28-1.25-4.53,0L43.53,94.29c-2.41,2.41-0.7,6.52,2.7,6.52h30.48
			c0.65,0,1.03,0.75,0.63,1.27l-30.71,40.96c-0.82,1.1-0.6,2.65,0.5,3.48l4.08,3.06c1.1,0.82,2.65,0.6,3.48-0.5l39.41-52.54
			c0.58-0.77,1.76-0.66,2.19,0.2l26.48,52.96c0.42,0.84,1.28,1.37,2.22,1.37h5.17c0.94,0,1.8-0.53,2.22-1.37l25.99-51.98
			c0.87-1.75,0.53-3.86-0.85-5.24L103.7,38.66z M126.75,135.16l-16.6-33.2c-0.26-0.53,0.12-1.15,0.71-1.15h14.54
			c1.2,0,2.16-0.97,2.16-2.16v-5.74c0-1.2-0.97-2.16-2.16-2.16H63.52c-0.81,0-1.22-0.98-0.64-1.55l37.75-37.74
			c0.45-0.45,1.17-0.45,1.62,0l44.75,44.75c0.35,0.35,0.44,0.88,0.21,1.32l-18.83,37.65C128.04,135.83,127.08,135.83,126.75,135.16z
			"/>
	</g>
</g>
</svg>
