<?xml version="1.0" encoding="utf-8"?>
<!-- Generator: Adobe Illustrator 26.0.1, SVG Export Plug-In . SVG Version: 6.00 Build 0)  -->
<svg version="1.1" id="Layer_1" xmlns="http://www.w3.org/2000/svg" xmlns:xlink="http://www.w3.org/1999/xlink" x="0px" y="0px"
	 viewBox="0 0 200 78.47" style="enable-background:new 0 0 200 78.47;" xml:space="preserve">
<style type="text/css">
	.st0{fill:#021614;}
</style>
<g>
	<g>
		<g>
			<path class="st0" d="M8.81,66.3l-1.65-0.38c-1.24-0.28-2.17-0.66-2.77-1.13c-0.58-0.45-0.86-1.11-0.86-2.01
				c0-1.04,0.34-1.79,1.03-2.3c0.7-0.52,1.68-0.78,2.92-0.78c1.13,0,2.09,0.21,2.85,0.64c0.76,0.43,1.42,1.02,1.96,1.76l0.13,0.18
				l2.18-1.59l-0.12-0.18c-0.77-1.11-1.73-1.96-2.85-2.53s-2.47-0.86-4.02-0.86c-1,0-1.93,0.12-2.77,0.37s-1.58,0.62-2.19,1.1
				s-1.1,1.09-1.44,1.82c-0.34,0.72-0.51,1.55-0.51,2.47c0,1.62,0.52,2.9,1.54,3.8c1,0.88,2.46,1.54,4.34,1.98l1.65,0.38
				c1.29,0.3,2.22,0.7,2.77,1.19c0.54,0.48,0.8,1.16,0.8,2.07c0,1.1-0.35,1.96-1.07,2.62c-0.72,0.65-1.78,0.99-3.17,0.99
				c-1.13,0-2.13-0.24-2.96-0.71c-0.84-0.48-1.62-1.18-2.31-2.1l-0.14-0.18L0,74.68l0.12,0.17c0.83,1.12,1.84,2.02,3.03,2.66
				c1.19,0.64,2.63,0.97,4.3,0.97c1.1,0,2.1-0.15,2.98-0.45c0.88-0.3,1.64-0.72,2.26-1.26s1.1-1.21,1.43-1.99s0.5-1.65,0.5-2.61
				c0-1.56-0.47-2.83-1.39-3.77C12.31,67.46,10.83,66.76,8.81,66.3z"/>
		</g>
		<g>
			<polygon class="st0" points="17.09,78.12 29.87,78.12 29.87,75.54 19.96,75.54 19.96,68.97 29.29,68.97 29.29,66.39 19.96,66.39 
				19.96,60.05 29.87,60.05 29.87,57.47 17.09,57.47 			"/>
		</g>
		<g>
			<path class="st0" d="M44.89,72.38c-0.39,1.06-1.01,1.91-1.84,2.55c-0.83,0.63-1.87,0.95-3.11,0.95c-1.68,0-3-0.57-3.91-1.69
				c-0.93-1.14-1.4-2.74-1.4-4.77V66.4c0-1.02,0.12-1.95,0.37-2.77c0.24-0.81,0.59-1.52,1.05-2.11c0.45-0.58,1.01-1.03,1.66-1.35
				c0.65-0.31,1.4-0.47,2.24-0.47c1.2,0,2.21,0.3,3,0.9c0.79,0.6,1.39,1.41,1.78,2.41l0.09,0.24l2.36-1.42l-0.08-0.18
				c-0.65-1.44-1.58-2.57-2.76-3.35c-1.18-0.78-2.66-1.18-4.39-1.18c-2.63,0-4.7,0.95-6.17,2.82c-1.45,1.86-2.19,4.54-2.19,7.97
				s0.74,6.08,2.19,7.86c1.47,1.79,3.54,2.7,6.17,2.7c1.74,0,3.24-0.42,4.47-1.25s2.18-1.99,2.83-3.45l0.08-0.17L45,72.14
				L44.89,72.38z"/>
		</g>
		<g>
			<path class="st0" d="M61.44,70.22c0,1.88-0.35,3.31-1.03,4.27c-0.67,0.93-1.87,1.4-3.59,1.4c-1.71,0-2.92-0.47-3.59-1.4
				c-0.68-0.95-1.03-2.39-1.03-4.27V57.47h-2.87v12.15c0,1.48,0.12,2.78,0.37,3.87c0.25,1.11,0.67,2.04,1.24,2.78
				c0.58,0.74,1.36,1.3,2.31,1.66c0.94,0.36,2.11,0.54,3.48,0.54s2.55-0.18,3.51-0.53c0.97-0.36,1.77-0.92,2.37-1.66
				c0.6-0.74,1.04-1.67,1.3-2.78c0.26-1.09,0.4-2.4,0.4-3.87V57.47h-2.87V70.22z"/>
		</g>
		<g>
			<path class="st0" d="M79.8,67.21c0.71-0.99,1.07-2.27,1.07-3.79c0-1.91-0.52-3.39-1.56-4.41c-1.03-1.02-2.48-1.54-4.31-1.54
				h-8.27v20.66h2.87v-8.69h4.37l4.37,8.69h3.25l-4.67-9C78.16,68.78,79.13,68.14,79.8,67.21z M69.6,60.05H75
				c0.9,0,1.61,0.23,2.09,0.69c0.48,0.46,0.73,1.12,0.73,1.98v1.51c0,0.86-0.24,1.53-0.73,1.98C76.6,66.67,75.9,66.9,75,66.9h-5.4
				V60.05z"/>
		</g>
		<g>
			<polygon class="st0" points="83.41,59.93 86.25,59.93 86.25,75.65 83.41,75.65 83.41,78.12 91.96,78.12 91.96,75.65 89.12,75.65 
				89.12,59.93 91.96,59.93 91.96,57.47 83.41,57.47 			"/>
		</g>
		<g>
			<polygon class="st0" points="93.81,60.05 100.24,60.05 100.24,78.12 103.11,78.12 103.11,60.05 109.54,60.05 109.54,57.47 
				93.81,57.47 			"/>
		</g>
		<g>
			<polygon class="st0" points="119.27,67.04 113.97,57.47 110.68,57.47 117.79,69.97 117.79,78.12 120.66,78.12 120.66,69.88 
				127.86,57.47 124.57,57.47 			"/>
		</g>
		<g>
			<path class="st0" d="M142.47,69.87h4.46v1.79c0,0.72-0.13,1.35-0.38,1.87c-0.25,0.52-0.61,0.96-1.05,1.31
				c-0.45,0.35-0.98,0.62-1.58,0.79c-0.6,0.18-1.25,0.27-1.92,0.27c-0.93,0-1.78-0.16-2.52-0.46c-0.74-0.31-1.37-0.74-1.88-1.3
				c-0.51-0.56-0.91-1.24-1.19-2.03c-0.28-0.8-0.42-1.7-0.42-2.67v-3.28c0-0.98,0.14-1.87,0.42-2.66c0.28-0.78,0.68-1.46,1.19-2.02
				c0.51-0.56,1.12-0.99,1.82-1.3c0.7-0.31,1.49-0.46,2.35-0.46c1.22,0,2.29,0.3,3.16,0.89c0.88,0.59,1.55,1.42,1.99,2.45l0.1,0.23
				l2.39-1.45l-0.09-0.18c-0.67-1.36-1.64-2.47-2.89-3.29s-2.82-1.24-4.67-1.24c-1.32,0-2.54,0.24-3.62,0.71
				c-1.09,0.47-2.03,1.17-2.8,2.07s-1.37,2.03-1.78,3.35c-0.41,1.32-0.62,2.85-0.62,4.54c0,1.71,0.21,3.25,0.63,4.57
				c0.42,1.33,1.02,2.45,1.76,3.35c0.75,0.9,1.67,1.59,2.73,2.06c1.06,0.46,2.23,0.7,3.49,0.7c1.58,0,2.89-0.33,3.9-0.97
				c0.71-0.45,1.24-1,1.59-1.62v2.24h2.7V67.28h-7.27L142.47,69.87L142.47,69.87z"/>
		</g>
		<g>
			<path class="st0" d="M163.93,70.22c0,1.88-0.35,3.31-1.03,4.27c-0.67,0.93-1.87,1.4-3.59,1.4c-1.71,0-2.92-0.47-3.59-1.4
				c-0.68-0.95-1.03-2.39-1.03-4.27V57.47h-2.87v12.15c0,1.48,0.12,2.78,0.37,3.87c0.25,1.11,0.67,2.04,1.24,2.78
				c0.58,0.74,1.36,1.3,2.31,1.66c0.94,0.36,2.11,0.54,3.48,0.54s2.55-0.18,3.51-0.53c0.97-0.36,1.77-0.92,2.37-1.66
				c0.6-0.74,1.04-1.67,1.3-2.78c0.26-1.09,0.4-2.4,0.4-3.87V57.47h-2.87V70.22z"/>
		</g>
		<g>
			<path class="st0" d="M179.31,69.13c1.25-0.34,2.22-0.98,2.88-1.91c0.71-0.99,1.07-2.27,1.07-3.79c0-1.91-0.52-3.39-1.56-4.41
				c-1.03-1.02-2.48-1.54-4.31-1.54h-8.27v20.66h2.87v-8.69h4.37l4.37,8.69h3.25L179.31,69.13z M171.99,60.05h5.4
				c0.9,0,1.61,0.23,2.09,0.69s0.73,1.12,0.73,1.98v1.51c0,0.86-0.24,1.53-0.73,1.98c-0.49,0.46-1.19,0.69-2.09,0.69h-5.4V60.05z"/>
		</g>
		<g>
			<path class="st0" d="M200,69.62V57.47h-2.87v12.75c0,1.88-0.35,3.31-1.03,4.27c-0.67,0.93-1.87,1.4-3.59,1.4
				c-1.71,0-2.92-0.47-3.59-1.4c-0.68-0.95-1.03-2.39-1.03-4.27V57.47h-2.87v12.15c0,1.48,0.12,2.78,0.37,3.87
				c0.25,1.11,0.67,2.04,1.24,2.78c0.58,0.74,1.36,1.3,2.31,1.66c0.94,0.36,2.11,0.54,3.48,0.54s2.55-0.18,3.51-0.53
				c0.97-0.36,1.77-0.92,2.37-1.66c0.6-0.74,1.04-1.67,1.3-2.78C199.87,72.4,200,71.09,200,69.62z"/>
		</g>
	</g>
	<g>
		<path class="st0" d="M100,0C87.52,0,77.37,10.15,77.37,22.63S87.52,45.27,100,45.27s22.63-10.15,22.63-22.63S112.48,0,100,0z
			 M120.29,22.63c0,11.19-9.1,20.29-20.29,20.29s-20.29-9.1-20.29-20.29S88.81,2.34,100,2.34S120.29,11.45,120.29,22.63z"/>
		<g>
			<path class="st0" d="M100.84,8.75c-0.28-0.28-0.74-0.28-1.02,0l-12.6,12.59c-0.54,0.54-0.16,1.48,0.61,1.48h6.9
				c0.15,0,0.23,0.17,0.14,0.29l-6.95,9.27c-0.19,0.25-0.14,0.6,0.11,0.79l0.92,0.69c0.25,0.19,0.6,0.14,0.79-0.11l8.92-11.89
				c0.13-0.17,0.4-0.15,0.49,0.04l5.99,11.99c0.1,0.19,0.29,0.31,0.5,0.31h1.17c0.21,0,0.41-0.12,0.5-0.31l5.88-11.76
				c0.2-0.4,0.12-0.87-0.19-1.19L100.84,8.75z M106.05,30.59l-3.76-7.51c-0.06-0.12,0.03-0.26,0.16-0.26h3.29
				c0.27,0,0.49-0.22,0.49-0.49v-1.3c0-0.27-0.22-0.49-0.49-0.49h-14c-0.18,0-0.28-0.22-0.15-0.35l8.54-8.54
				c0.1-0.1,0.27-0.1,0.37,0l10.13,10.13c0.08,0.08,0.1,0.2,0.05,0.3l-4.26,8.52C106.35,30.74,106.13,30.74,106.05,30.59z"/>
		</g>
	</g>
</g>
</svg>
