<?xml version="1.0" encoding="utf-8"?>
<!-- Generator: Adobe Illustrator 26.0.1, SVG Export Plug-In . SVG Version: 6.00 Build 0)  -->
<svg version="1.1" id="Layer_1" xmlns="http://www.w3.org/2000/svg" xmlns:xlink="http://www.w3.org/1999/xlink" x="0px" y="0px"
	 viewBox="0 0 200 21.35" style="enable-background:new 0 0 200 21.35;" xml:space="preserve">
<style type="text/css">
	.st0{fill:#FFBC85;}
</style>
<g>
	<g>
		<path class="st0" d="M8.81,9.19L7.15,8.81C5.92,8.53,4.99,8.15,4.39,7.68C3.81,7.23,3.53,6.57,3.53,5.66
			c0-1.04,0.34-1.79,1.03-2.3c0.7-0.52,1.68-0.78,2.92-0.78c1.13,0,2.09,0.21,2.85,0.64c0.76,0.43,1.42,1.02,1.96,1.76l0.13,0.18
			l2.18-1.59L14.47,3.4c-0.77-1.11-1.73-1.96-2.85-2.53C10.51,0.29,9.15,0,7.6,0c-1,0-1.93,0.12-2.77,0.37
			c-0.84,0.25-1.58,0.62-2.19,1.1C2.03,1.95,1.54,2.56,1.2,3.28C0.86,4,0.69,4.83,0.69,5.75c0,1.62,0.52,2.9,1.54,3.8
			c1,0.88,2.46,1.54,4.34,1.98l1.65,0.38c1.29,0.3,2.22,0.7,2.77,1.19c0.54,0.48,0.8,1.16,0.8,2.07c0,1.1-0.35,1.96-1.07,2.62
			c-0.72,0.65-1.78,0.99-3.17,0.99c-1.13,0-2.13-0.24-2.96-0.71c-0.84-0.48-1.62-1.18-2.31-2.1l-0.14-0.18L0,17.56l0.12,0.17
			c0.83,1.12,1.84,2.02,3.03,2.66c1.19,0.64,2.63,0.97,4.3,0.97c1.1,0,2.1-0.15,2.98-0.45c0.88-0.3,1.64-0.72,2.26-1.26
			c0.62-0.54,1.1-1.21,1.43-1.99c0.33-0.78,0.5-1.65,0.5-2.61c0-1.56-0.47-2.83-1.39-3.77C12.31,10.34,10.83,9.64,8.81,9.19z"/>
	</g>
	<g>
		<polygon class="st0" points="17.09,21 29.87,21 29.87,18.42 19.96,18.42 19.96,11.85 29.29,11.85 29.29,9.27 19.96,9.27 
			19.96,2.93 29.87,2.93 29.87,0.35 17.09,0.35 		"/>
	</g>
	<g>
		<path class="st0" d="M44.89,15.26c-0.39,1.06-1.01,1.91-1.84,2.55c-0.83,0.63-1.87,0.95-3.11,0.95c-1.68,0-3-0.57-3.91-1.69
			c-0.93-1.14-1.4-2.74-1.4-4.77V9.28c0-1.02,0.12-1.95,0.37-2.77c0.24-0.81,0.59-1.52,1.05-2.11c0.45-0.58,1.01-1.03,1.66-1.35
			c0.65-0.31,1.4-0.47,2.24-0.47c1.2,0,2.21,0.3,3,0.9c0.79,0.6,1.39,1.41,1.78,2.41l0.09,0.24l2.36-1.42l-0.08-0.18
			c-0.65-1.44-1.58-2.57-2.76-3.35C43.16,0.4,41.68,0,39.94,0c-2.63,0-4.7,0.95-6.17,2.82c-1.45,1.86-2.19,4.54-2.19,7.97
			c0,3.43,0.74,6.08,2.19,7.86c1.47,1.79,3.54,2.7,6.17,2.7c1.74,0,3.24-0.42,4.47-1.25c1.23-0.83,2.18-1.99,2.83-3.45l0.08-0.17
			l-2.33-1.46L44.89,15.26z"/>
	</g>
	<g>
		<path class="st0" d="M61.44,13.1c0,1.88-0.35,3.31-1.03,4.27c-0.67,0.93-1.87,1.4-3.59,1.4c-1.71,0-2.92-0.47-3.59-1.4
			c-0.68-0.95-1.03-2.39-1.03-4.27V0.35h-2.87V12.5c0,1.48,0.12,2.78,0.37,3.87c0.25,1.11,0.67,2.04,1.24,2.78
			c0.58,0.74,1.36,1.3,2.31,1.66c0.94,0.36,2.11,0.54,3.48,0.54c1.37,0,2.55-0.18,3.51-0.53c0.97-0.36,1.77-0.92,2.37-1.66
			c0.6-0.74,1.04-1.67,1.3-2.78c0.26-1.09,0.4-2.4,0.4-3.87V0.35h-2.87V13.1z"/>
	</g>
	<g>
		<path class="st0" d="M79.8,10.09c0.71-0.99,1.07-2.27,1.07-3.79c0-1.91-0.52-3.39-1.56-4.41C78.28,0.87,76.83,0.35,75,0.35h-8.27
			V21h2.87v-8.69h4.37L78.34,21h3.25l-4.67-9C78.16,11.67,79.13,11.02,79.8,10.09z M69.6,2.93H75c0.9,0,1.61,0.23,2.09,0.69
			c0.48,0.46,0.73,1.12,0.73,1.98v1.51c0,0.86-0.24,1.53-0.73,1.98C76.61,9.56,75.9,9.79,75,9.79h-5.4V2.93z"/>
	</g>
	<g>
		<polygon class="st0" points="83.41,2.81 86.25,2.81 86.25,18.54 83.41,18.54 83.41,21 91.96,21 91.96,18.54 89.12,18.54 
			89.12,2.81 91.96,2.81 91.96,0.35 83.41,0.35 		"/>
	</g>
	<g>
		<polygon class="st0" points="93.81,2.93 100.24,2.93 100.24,21 103.11,21 103.11,2.93 109.54,2.93 109.54,0.35 93.81,0.35 		"/>
	</g>
	<g>
		<polygon class="st0" points="119.27,9.92 113.97,0.35 110.68,0.35 117.79,12.85 117.79,21 120.66,21 120.66,12.76 127.86,0.35 
			124.57,0.35 		"/>
	</g>
	<g>
		<path class="st0" d="M142.47,12.75h4.46v1.79c0,0.72-0.13,1.35-0.38,1.87c-0.25,0.52-0.61,0.96-1.05,1.31
			c-0.45,0.35-0.98,0.62-1.58,0.79c-0.6,0.18-1.25,0.27-1.92,0.27c-0.93,0-1.78-0.16-2.52-0.46c-0.74-0.31-1.37-0.74-1.88-1.3
			c-0.51-0.56-0.91-1.24-1.19-2.03c-0.28-0.8-0.42-1.7-0.42-2.67V9.02c0-0.98,0.14-1.87,0.42-2.66c0.28-0.78,0.68-1.46,1.19-2.02
			c0.51-0.56,1.12-0.99,1.82-1.3c0.7-0.31,1.49-0.46,2.35-0.46c1.22,0,2.29,0.3,3.16,0.89c0.88,0.59,1.55,1.42,1.99,2.45l0.1,0.23
			l2.39-1.45l-0.09-0.18c-0.67-1.36-1.64-2.47-2.89-3.29C145.18,0.42,143.61,0,141.76,0c-1.32,0-2.54,0.24-3.62,0.71
			c-1.09,0.47-2.03,1.17-2.8,2.07c-0.77,0.9-1.37,2.03-1.78,3.35c-0.41,1.32-0.62,2.85-0.62,4.54c0,1.71,0.21,3.25,0.63,4.57
			c0.42,1.33,1.02,2.45,1.76,3.35c0.75,0.9,1.67,1.59,2.73,2.06c1.06,0.46,2.23,0.7,3.49,0.7c1.58,0,2.89-0.33,3.9-0.97
			c0.71-0.45,1.24-1,1.59-1.62V21h2.7V10.17h-7.27V12.75z"/>
	</g>
	<g>
		<path class="st0" d="M163.93,13.1c0,1.88-0.35,3.31-1.03,4.27c-0.67,0.93-1.87,1.4-3.59,1.4c-1.71,0-2.92-0.47-3.59-1.4
			c-0.68-0.95-1.03-2.39-1.03-4.27V0.35h-2.87V12.5c0,1.48,0.12,2.78,0.37,3.87c0.25,1.11,0.67,2.04,1.24,2.78
			c0.58,0.74,1.36,1.3,2.31,1.66c0.94,0.36,2.11,0.54,3.48,0.54c1.37,0,2.55-0.18,3.51-0.53c0.97-0.36,1.77-0.92,2.37-1.66
			c0.6-0.74,1.04-1.67,1.3-2.78c0.26-1.09,0.4-2.4,0.4-3.87V0.35h-2.87V13.1z"/>
	</g>
	<g>
		<path class="st0" d="M179.31,12.01c1.25-0.34,2.22-0.98,2.88-1.91c0.71-0.99,1.07-2.27,1.07-3.79c0-1.91-0.52-3.39-1.56-4.41
			c-1.03-1.02-2.48-1.54-4.31-1.54h-8.27V21h2.87v-8.69h4.37l4.37,8.69h3.25L179.31,12.01z M171.99,2.93h5.4
			c0.9,0,1.61,0.23,2.09,0.69c0.48,0.46,0.73,1.12,0.73,1.98v1.51c0,0.86-0.24,1.53-0.73,1.98c-0.49,0.46-1.19,0.69-2.09,0.69h-5.4
			V2.93z"/>
	</g>
	<g>
		<path class="st0" d="M200,12.5V0.35h-2.87V13.1c0,1.88-0.35,3.31-1.03,4.27c-0.67,0.93-1.87,1.4-3.59,1.4
			c-1.71,0-2.92-0.47-3.59-1.4c-0.68-0.95-1.03-2.39-1.03-4.27V0.35h-2.87V12.5c0,1.48,0.12,2.78,0.37,3.87
			c0.25,1.11,0.67,2.04,1.24,2.78c0.58,0.74,1.36,1.3,2.31,1.66c0.94,0.36,2.11,0.54,3.48,0.54c1.37,0,2.55-0.18,3.51-0.53
			c0.97-0.36,1.77-0.92,2.37-1.66c0.6-0.74,1.04-1.67,1.3-2.78C199.87,15.28,200,13.98,200,12.5z"/>
	</g>
</g>
</svg>
