<?xml version="1.0" encoding="utf-8"?>
<!-- Generator: Adobe Illustrator 26.0.1, SVG Export Plug-In . SVG Version: 6.00 Build 0)  -->
<svg version="1.1" id="Layer_1" xmlns="http://www.w3.org/2000/svg" xmlns:xlink="http://www.w3.org/1999/xlink" x="0px" y="0px"
	 viewBox="0 0 200 34.02" style="enable-background:new 0 0 200 34.02;" xml:space="preserve">
<style type="text/css">
	.st0{fill:#FFFFFF;}
</style>
<g>
	<g>
		<path class="st0" d="M17.01,0C7.63,0,0,7.63,0,17.01s7.63,17.01,17.01,17.01s17.01-7.63,17.01-17.01S26.39,0,17.01,0z
			 M32.05,17.01c0,8.29-6.75,15.04-15.04,15.04S1.97,25.3,1.97,17.01c0-8.29,6.75-15.04,15.04-15.04S32.05,8.72,32.05,17.01z"/>
		<path class="st0" d="M17.67,6.6c-0.23-0.23-0.61-0.23-0.84,0l-9.4,9.4c-0.2,0.2-0.26,0.5-0.15,0.76c0.11,0.27,0.36,0.43,0.65,0.43
			h5.15c0.03,0,0.06,0.02,0.07,0.04c0.01,0.03,0.01,0.06-0.01,0.08l-5.19,6.92c-0.08,0.1-0.11,0.23-0.09,0.35
			c0.02,0.13,0.08,0.24,0.18,0.31l0.69,0.52c0.21,0.16,0.51,0.11,0.66-0.09l6.66-8.88c0.03-0.05,0.09-0.07,0.15-0.06
			c0.06,0.01,0.11,0.04,0.13,0.09l4.48,8.95c0.08,0.16,0.24,0.26,0.42,0.26h0.87c0.18,0,0.34-0.1,0.42-0.26l4.39-8.79
			c0.16-0.32,0.1-0.7-0.15-0.95L17.67,6.6z M21.76,22.93c-0.03,0.07-0.14,0.07-0.18,0l-2.81-5.61c-0.01-0.03-0.01-0.05,0-0.08
			c0.01-0.02,0.04-0.04,0.07-0.04h2.46c0.23,0,0.42-0.19,0.42-0.42v-0.97c0-0.23-0.19-0.42-0.42-0.42H10.84
			c-0.04,0-0.08-0.02-0.09-0.06c-0.02-0.04-0.01-0.08,0.02-0.11l6.38-6.38c0.05-0.05,0.14-0.05,0.2,0l7.56,7.56
			c0.04,0.04,0.05,0.11,0.03,0.16L21.76,22.93z"/>
	</g>
	<g>
		<path class="st0" d="M47.75,15.82l-1.31-0.3c-0.99-0.22-1.73-0.53-2.2-0.9c-0.46-0.36-0.68-0.88-0.68-1.6
			c0-0.83,0.27-1.42,0.82-1.83c0.56-0.41,1.34-0.62,2.33-0.62c0.9,0,1.67,0.17,2.27,0.51c0.61,0.34,1.13,0.81,1.56,1.4l0.1,0.14
			l1.73-1.27l-0.1-0.14c-0.61-0.88-1.38-1.56-2.27-2.02c-0.89-0.46-1.97-0.69-3.21-0.69c-0.8,0-1.54,0.1-2.21,0.3
			C43.91,9,43.32,9.3,42.84,9.68c-0.49,0.38-0.87,0.87-1.15,1.45c-0.27,0.57-0.41,1.24-0.41,1.97c0,1.29,0.41,2.31,1.22,3.03
			c0.79,0.7,1.96,1.23,3.46,1.57l1.31,0.3c1.03,0.24,1.77,0.56,2.21,0.95c0.43,0.38,0.63,0.92,0.63,1.65c0,0.88-0.28,1.56-0.85,2.08
			c-0.57,0.52-1.42,0.78-2.52,0.78c-0.9,0-1.7-0.19-2.36-0.57c-0.67-0.38-1.29-0.94-1.84-1.67l-0.11-0.15l-1.7,1.42l0.1,0.13
			c0.66,0.89,1.47,1.6,2.41,2.11c0.94,0.51,2.1,0.77,3.43,0.77c0.88,0,1.67-0.12,2.37-0.36c0.7-0.24,1.31-0.57,1.8-1
			c0.49-0.43,0.88-0.96,1.14-1.59c0.26-0.62,0.39-1.32,0.39-2.07c0-1.24-0.37-2.25-1.11-3.01C50.54,16.74,49.36,16.18,47.75,15.82z"
			/>
		<polygon class="st0" points="54.34,25.23 64.52,25.23 64.52,23.18 56.63,23.18 56.63,17.95 64.06,17.95 64.06,15.89 56.63,15.89 
			56.63,10.84 64.52,10.84 64.52,8.79 54.34,8.79 		"/>
		<path class="st0" d="M76.48,20.66c-0.31,0.84-0.8,1.52-1.46,2.03c-0.66,0.5-1.49,0.76-2.48,0.76c-1.34,0-2.39-0.45-3.12-1.35
			c-0.74-0.9-1.11-2.18-1.11-3.8V15.9c0-0.81,0.1-1.56,0.29-2.21c0.19-0.65,0.47-1.21,0.84-1.68c0.36-0.46,0.8-0.82,1.32-1.07
			c0.52-0.25,1.12-0.38,1.78-0.38c0.96,0,1.76,0.24,2.39,0.71c0.63,0.48,1.11,1.12,1.42,1.92l0.08,0.19l1.88-1.13l-0.06-0.14
			c-0.52-1.15-1.26-2.04-2.2-2.67c-0.94-0.62-2.12-0.94-3.5-0.94c-2.09,0-3.74,0.76-4.91,2.25c-1.16,1.48-1.74,3.61-1.74,6.35
			c0,2.74,0.59,4.84,1.75,6.26c1.17,1.43,2.82,2.15,4.91,2.15c1.38,0,2.58-0.34,3.56-1c0.98-0.66,1.73-1.59,2.25-2.75l0.06-0.14
			l-1.86-1.16L76.48,20.66z"/>
		<path class="st0" d="M89.66,18.94c0,1.5-0.28,2.64-0.82,3.4c-0.53,0.74-1.49,1.12-2.86,1.12c-1.36,0-2.32-0.38-2.86-1.12
			c-0.54-0.76-0.82-1.9-0.82-3.4V8.79h-2.29v9.68c0,1.18,0.1,2.21,0.29,3.08c0.2,0.88,0.53,1.63,0.99,2.21
			c0.46,0.59,1.08,1.04,1.84,1.32c0.75,0.28,1.68,0.43,2.77,0.43c1.09,0,2.03-0.14,2.79-0.43c0.77-0.29,1.41-0.73,1.89-1.32
			c0.48-0.59,0.82-1.33,1.04-2.21c0.21-0.87,0.32-1.91,0.32-3.09V8.79h-2.29V18.94z"/>
		<path class="st0" d="M104.28,16.55c0.57-0.79,0.85-1.8,0.85-3.02c0-1.52-0.42-2.7-1.24-3.51c-0.82-0.81-1.98-1.23-3.43-1.23h-6.59
			v16.45h2.29v-6.92h3.48l3.48,6.92h2.59l-3.72-7.16C102.98,17.8,103.75,17.29,104.28,16.55z M96.16,10.84h4.3
			c0.72,0,1.28,0.19,1.67,0.55c0.38,0.36,0.58,0.9,0.58,1.58v1.2c0,0.68-0.19,1.22-0.58,1.58c-0.39,0.37-0.95,0.55-1.67,0.55h-4.3
			V10.84z"/>
		<polygon class="st0" points="107.16,10.75 109.42,10.75 109.42,23.27 107.16,23.27 107.16,25.23 113.96,25.23 113.96,23.27 
			111.7,23.27 111.7,10.75 113.96,10.75 113.96,8.79 107.16,8.79 		"/>
		<polygon class="st0" points="115.44,10.84 120.56,10.84 120.56,25.23 122.85,25.23 122.85,10.84 127.97,10.84 127.97,8.79 
			115.44,8.79 		"/>
		<polygon class="st0" points="135.71,16.41 131.49,8.79 128.88,8.79 134.54,18.74 134.54,25.23 136.82,25.23 136.82,18.67 
			142.56,8.79 139.94,8.79 		"/>
		<path class="st0" d="M154.19,18.66h3.55v1.42c0,0.57-0.1,1.07-0.31,1.49c-0.2,0.41-0.48,0.76-0.84,1.04
			c-0.36,0.28-0.78,0.49-1.26,0.63c-0.48,0.14-1,0.21-1.53,0.21c-0.74,0-1.42-0.12-2.01-0.37c-0.59-0.24-1.09-0.59-1.49-1.03
			c-0.4-0.44-0.72-0.99-0.94-1.62c-0.22-0.63-0.34-1.35-0.34-2.13v-2.62c0-0.78,0.11-1.49,0.34-2.12c0.22-0.62,0.54-1.16,0.94-1.61
			c0.4-0.44,0.89-0.79,1.45-1.03c0.56-0.24,1.19-0.37,1.87-0.37c0.97,0,1.82,0.24,2.52,0.71c0.7,0.47,1.23,1.13,1.59,1.95l0.08,0.19
			l1.9-1.16l-0.07-0.14c-0.53-1.08-1.31-1.97-2.3-2.62c-0.99-0.65-2.24-0.99-3.72-0.99c-1.05,0-2.02,0.19-2.88,0.57
			c-0.87,0.38-1.62,0.93-2.23,1.65c-0.61,0.72-1.09,1.61-1.42,2.67c-0.33,1.05-0.49,2.27-0.49,3.62c0,1.37,0.17,2.59,0.5,3.64
			c0.34,1.06,0.81,1.95,1.4,2.67c0.6,0.72,1.33,1.27,2.17,1.64c0.84,0.37,1.78,0.56,2.78,0.56c1.26,0,2.3-0.26,3.1-0.77
			c0.57-0.36,0.99-0.79,1.26-1.29v1.78h2.15V16.6h-5.79V18.66z"/>
		<path class="st0" d="M171.27,18.94c0,1.5-0.28,2.64-0.82,3.4c-0.53,0.74-1.49,1.12-2.86,1.12c-1.36,0-2.32-0.38-2.86-1.12
			c-0.54-0.76-0.82-1.9-0.82-3.4V8.79h-2.29v9.68c0,1.18,0.1,2.21,0.29,3.08c0.2,0.88,0.53,1.63,0.99,2.21
			c0.46,0.59,1.08,1.04,1.84,1.32c0.75,0.28,1.68,0.43,2.77,0.43c1.09,0,2.03-0.14,2.79-0.43c0.77-0.29,1.41-0.73,1.89-1.32
			c0.48-0.59,0.82-1.33,1.04-2.21c0.21-0.87,0.32-1.91,0.32-3.09V8.79h-2.29V18.94z"/>
		<path class="st0" d="M183.52,18.07c0.99-0.27,1.76-0.78,2.3-1.52c0.57-0.79,0.85-1.8,0.85-3.02c0-1.52-0.42-2.7-1.24-3.51
			c-0.82-0.81-1.98-1.23-3.43-1.23h-6.59v16.45h2.29v-6.92h3.48l3.48,6.92h2.59L183.52,18.07z M177.7,10.84h4.3
			c0.72,0,1.28,0.19,1.67,0.55c0.38,0.36,0.58,0.9,0.58,1.58v1.2c0,0.68-0.19,1.22-0.58,1.58c-0.39,0.37-0.95,0.55-1.67,0.55h-4.3
			V10.84z"/>
		<path class="st0" d="M200,18.46V8.79h-2.29v10.15c0,1.5-0.28,2.64-0.82,3.4c-0.53,0.74-1.49,1.12-2.86,1.12
			c-1.36,0-2.32-0.38-2.86-1.12c-0.54-0.76-0.82-1.9-0.82-3.4V8.79h-2.29v9.68c0,1.18,0.1,2.21,0.29,3.08
			c0.2,0.88,0.53,1.63,0.99,2.21c0.46,0.59,1.08,1.04,1.84,1.32c0.75,0.28,1.68,0.43,2.77,0.43c1.09,0,2.03-0.14,2.79-0.43
			c0.77-0.29,1.41-0.73,1.89-1.32c0.48-0.59,0.82-1.33,1.04-2.21C199.89,20.68,200,19.64,200,18.46z"/>
	</g>
</g>
</svg>
